<?xml version="1.0" encoding="utf-8"?>
<!-- Generator: Adobe Illustrator 16.0.0, SVG Export Plug-In . SVG Version: 6.00 Build 0)  -->
<!DOCTYPE svg PUBLIC "-//W3C//DTD SVG 1.1//EN" "http://www.w3.org/Graphics/SVG/1.1/DTD/svg11.dtd">
<svg version="1.1" id="Layer_1" xmlns="http://www.w3.org/2000/svg" xmlns:xlink="http://www.w3.org/1999/xlink" x="0px" y="0px"
	 width="128.932px" height="51.578px" viewBox="0 0 128.932 51.578" enable-background="new 0 0 128.932 51.578"
	 xml:space="preserve">
<path fill="#F7931E" d="M36.141,15.07c1.029,0,1.987,0.195,2.867,0.578c0.877,0.389,1.661,0.925,2.347,1.61
	c0.689,0.688,1.225,1.473,1.611,2.35c0.386,0.88,0.58,1.835,0.58,2.864v3.09c0,1.029-0.194,1.996-0.58,2.898
	c-0.387,0.9-0.922,1.693-1.611,2.383c-0.686,0.686-1.47,1.221-2.347,1.607c-0.88,0.387-1.838,0.578-2.867,0.578h-3.347v12.877
	c0,0.258-0.096,0.492-0.288,0.707c-0.194,0.215-0.442,0.322-0.742,0.322h-2.06c-0.258,0-0.494-0.107-0.706-0.322
	c-0.216-0.215-0.323-0.449-0.323-0.707V33.028v-4.119v-12.81c0-0.299,0.107-0.547,0.323-0.738c0.212-0.192,0.448-0.291,0.706-0.291
	H36.141z M39.427,22.472c0-0.9-0.323-1.673-0.97-2.316c-0.641-0.644-1.413-0.964-2.316-0.964h-3.347v9.717h3.347
	c0.903,0,1.676-0.32,2.316-0.965c0.646-0.643,0.97-1.438,0.97-2.382V22.472z"/>
<path fill="#F7931E" d="M58.22,43.847v2.059c0,0.258-0.096,0.492-0.287,0.707c-0.194,0.215-0.442,0.322-0.742,0.322h-7.598
	c-0.599,0-1.093-0.203-1.479-0.613c-0.387-0.406-0.581-0.889-0.581-1.445V16.099c0-0.685,0.345-1.029,1.03-1.029h2.062
	c0.257,0,0.494,0.099,0.709,0.291c0.213,0.191,0.32,0.439,0.32,0.738v26.714h5.535C57.879,42.813,58.22,43.157,58.22,43.847z"/>
<path fill="#F7931E" d="M75.858,16.099v23.367c0,1.031-0.192,1.998-0.578,2.896c-0.387,0.902-0.925,1.697-1.607,2.383
	c-0.688,0.688-1.473,1.223-2.354,1.609c-0.88,0.387-1.832,0.58-2.861,0.58s-1.996-0.193-2.897-0.58s-1.694-0.922-2.383-1.609
	c-0.686-0.686-1.222-1.48-1.61-2.383c-0.384-0.898-0.578-1.865-0.578-2.896V16.099c0-0.299,0.104-0.547,0.32-0.738
	c0.216-0.192,0.452-0.291,0.709-0.291h2.062c0.683,0,1.03,0.345,1.03,1.029v23.367c0,0.943,0.32,1.74,0.964,2.381
	c0.644,0.646,1.437,0.967,2.383,0.967c0.898,0,1.67-0.32,2.317-0.967c0.644-0.641,0.964-1.438,0.964-2.381V16.099
	c0-0.685,0.344-1.029,1.029-1.029h2.06C75.517,15.07,75.858,15.415,75.858,16.099z"/>
<path fill="#F7931E" d="M91.888,24.724v-2.186c0-0.945-0.32-1.73-0.967-2.354c-0.644-0.619-1.416-0.93-2.316-0.93
	c-0.901,0-1.674,0.311-2.317,0.93c-0.644,0.623-0.964,1.408-0.964,2.354v17.056c0,0.902,0.32,1.674,0.964,2.318
	c0.644,0.643,1.416,0.963,2.317,0.963c0.9,0,1.673-0.32,2.316-0.963c0.646-0.645,0.967-1.416,0.967-2.318v-6.631h-2.254
	c-0.299,0-0.545-0.096-0.739-0.289c-0.194-0.191-0.29-0.42-0.29-0.678v-2.059c0-0.684,0.341-1.029,1.029-1.029h5.344
	c0.686,0,1.029,0.346,1.029,1.029v9.656c0,1.031-0.194,1.988-0.577,2.865c-0.39,0.881-0.925,1.652-1.61,2.316
	c-0.689,0.668-1.474,1.191-2.351,1.578c-0.88,0.387-1.835,0.58-2.864,0.58c-1.03,0-1.985-0.193-2.865-0.58s-1.661-0.91-2.35-1.578
	c-0.686-0.664-1.222-1.436-1.61-2.316c-0.384-0.877-0.578-1.834-0.578-2.865V22.539c0-1.029,0.194-1.996,0.578-2.897
	c0.389-0.904,0.925-1.683,1.61-2.351c0.688-0.664,1.47-1.191,2.35-1.577s1.835-0.58,2.865-0.58c1.029,0,1.984,0.194,2.864,0.58
	c0.877,0.386,1.661,0.913,2.351,1.577c0.686,0.668,1.221,1.446,1.61,2.351c0.383,0.901,0.577,1.868,0.577,2.897v2.186
	c0,0.688-0.344,1.029-1.029,1.029h-2.06C92.232,25.753,91.888,25.413,91.888,24.724z"/>
<path fill="#F7931E" d="M4.021,32.991c-0.689,0-1.03-0.348-1.03-1.029v-2.062c0-0.686,0.341-1.029,1.03-1.029h29.803
	c0.686,0,1.029,0.344,1.029,1.029v2.062c0,0.258-0.096,0.49-0.29,0.707c-0.194,0.215-0.439,0.322-0.739,0.322H4.021z"/>
<path d="M117.278,15.07c1.03,0,1.997,0.195,2.898,0.578c0.9,0.389,1.682,0.925,2.35,1.61c0.664,0.688,1.191,1.479,1.574,2.383
	c0.39,0.901,0.581,1.868,0.581,2.897v16.927c0,1.031-0.191,1.998-0.581,2.896c-0.383,0.902-0.91,1.697-1.574,2.383
	c-0.668,0.688-1.449,1.223-2.35,1.609c-0.901,0.387-1.868,0.58-2.898,0.58h-5.409c-0.557,0-1.038-0.203-1.445-0.613
	c-0.41-0.406-0.614-0.889-0.614-1.445V17.129c0-0.602,0.204-1.093,0.614-1.481c0.407-0.383,0.889-0.578,1.445-0.578H117.278z
	 M120.562,22.539c0-0.945-0.323-1.739-0.967-2.383s-1.416-0.964-2.317-0.964h-3.347v23.559h3.347c0.901,0,1.674-0.324,2.317-0.967
	c0.644-0.645,0.967-1.416,0.967-2.318V22.539z"/>
<path d="M105.182,16.078h-5v30.02c0,0.609,0.9,0.98,1.436,0.98h2.486c0.531,0,1.078-0.371,1.078-0.98V25.529V16.078z"/>
<g>
	<path d="M101.182,9.078V5.927c0-0.827-0.674-1.5-1.5-1.5c-0.827,0-1.5,0.673-1.5,1.5v3.151"/>
	<path d="M107.182,9.078V5.927c0-0.827-0.674-1.5-1.5-1.5c-0.828,0-1.5,0.673-1.5,1.5v3.151"/>
</g>
<path d="M109.182,10.078v1.314c0,3.784-2.773,6.935-6.5,6.935c-3.729,0-6.5-2.984-6.5-6.768v-1.481"/>
<path d="M110.064,10.078c0,0.626-0.395,1-0.883,1H96.188c-0.487,0-0.882-0.374-0.882-1l0,0c0-0.626,0.395-1,0.882-1h12.993
	C109.67,9.078,110.064,9.452,110.064,10.078L110.064,10.078z"/>
</svg>
