<?xml version="1.0" encoding="utf-8"?>
<!-- Generator: Adobe Illustrator 16.0.0, SVG Export Plug-In . SVG Version: 6.00 Build 0)  -->
<!DOCTYPE svg PUBLIC "-//W3C//DTD SVG 1.1//EN" "http://www.w3.org/Graphics/SVG/1.1/DTD/svg11.dtd">
<svg version="1.1" id="Layer_1" xmlns="http://www.w3.org/2000/svg" xmlns:xlink="http://www.w3.org/1999/xlink" x="0px" y="0px"
	 width="50px" height="20px" viewBox="0 0 50 20" enable-background="new 0 0 50 20" xml:space="preserve">
<path fill="#FF931E" stroke="#FF931E" stroke-miterlimit="10" d="M44.501,11.654h-3.502v-3h3.502c0.827,0,1.5-0.671,1.5-1.5
	c0-0.827-0.673-1.5-1.5-1.5h-3.502V3.383v-0.17c0-0.488-0.198-0.633-0.823-0.633s-1.483-0.105-1.485,0.895l0,0
	c-2.656,0.083-4.953,1.178-5.984,3.906c-0.032,0.059-0.113,0.273-0.113,0.273h-7.693c0,0-18.681,0-19.569,0
	c-0.887,0-1.331,0.055-1.331,0.632v4.016c0,0.447,0.427,0.352,1.331,0.352s19.569,0,19.569,0h7.693c0.029,0,0.071-0.105,0.104-0.047
	c1.031,2.728,3.319,3.863,5.976,3.945c0.047,0.002,0,0,0,0c0.002,1,0.879,0.863,1.504,0.863s0.823-0.551,0.823-1.039v-1.723h3.502
	c0.827,0,1.5-0.673,1.5-1.5C46.001,12.326,45.328,11.654,44.501,11.654z"/>
</svg>
